<svg width="240" height="198" viewBox="0 0 240 198" fill="none" xmlns="http://www.w3.org/2000/svg">
<path d="M0.863031 194.203C0.146472 195.383 0.522339 196.92 1.70255 197.637C2.88277 198.354 4.42041 197.978 5.13697 196.797L0.863031 194.203ZM105 27.5L107.157 26.2357L105.038 22.6208L102.863 26.2026L105 27.5ZM170.843 144.764C171.542 145.955 173.073 146.355 174.264 145.657C175.455 144.958 175.855 143.427 175.157 142.236L170.843 144.764ZM123.155 1.23273C122.455 0.0425567 120.923 -0.354894 119.733 0.344999C118.543 1.04489 118.145 2.5771 118.845 3.76727L123.155 1.23273ZM219.5 170V172.5H223.87L221.655 168.733L219.5 170ZM107.135 75.3004C107.853 74.1212 107.48 72.583 106.3 71.8648C105.121 71.1466 103.583 71.5204 102.865 72.6996L107.135 75.3004ZM31 195.5L28.8648 194.2L26.5502 198H31V195.5ZM237.5 198C238.881 198 240 196.881 240 195.5C240 194.119 238.881 193 237.5 193V198ZM5.13697 196.797C25.0537 163.993 50.5537 121.993 71.0745 88.1944C81.3349 71.2949 90.3505 56.4457 96.8011 45.8213C100.026 40.5091 102.61 36.2532 104.388 33.3252C105.277 31.8613 105.964 30.7293 106.429 29.9634C106.662 29.5804 106.839 29.2889 106.957 29.0932C107.017 28.9953 107.062 28.9213 107.092 28.8719C107.107 28.8472 107.118 28.8285 107.126 28.8161C107.129 28.8099 107.132 28.8053 107.134 28.8021C107.135 28.8006 107.136 28.7994 107.136 28.7986C107.137 28.7978 107.137 28.7974 105 27.5C102.863 26.2026 102.863 26.2029 102.862 26.2037C102.862 26.2045 102.861 26.2057 102.86 26.2072C102.858 26.2103 102.855 26.2151 102.852 26.2212C102.844 26.2337 102.833 26.2523 102.818 26.277C102.788 26.3265 102.743 26.4004 102.683 26.4983C102.565 26.694 102.388 26.9855 102.155 27.3685C101.69 28.1344 101.003 29.2664 100.114 30.7303C98.3363 33.6583 95.7524 37.9142 92.5271 43.2264C86.0766 53.8508 77.061 68.7 66.8006 85.5995C46.2798 119.399 20.7798 161.399 0.863031 194.203L5.13697 196.797ZM102.843 28.7643L170.843 144.764L175.157 142.236L107.157 26.2357L102.843 28.7643ZM118.845 3.76727L217.345 171.267L221.655 168.733L123.155 1.23273L118.845 3.76727ZM219.5 167.5H76.5V172.5H219.5V167.5ZM102.865 72.6996L28.8648 194.2L33.1352 196.8L107.135 75.3004L102.865 72.6996ZM31 195.5C31 198 31.0005 198 31.0014 198C31.0024 198 31.0038 198 31.0058 198C31.0077 198 31.0101 198 31.0129 198C31.0158 198 31.0191 198 31.023 198C31.0268 198 31.0311 198 31.0358 198C31.0406 198 31.0459 198 31.0516 198C31.0573 198 31.0635 198 31.0701 198C31.0768 198 31.0839 198 31.0915 198C31.0991 198 31.1072 198 31.1157 198C31.1243 198 31.1333 198 31.1428 198C31.1522 198 31.1622 198 31.1726 198C31.183 198 31.1939 198 31.2052 198C31.2165 198 31.2283 198 31.2406 198C31.2529 198 31.2656 198 31.2788 198C31.292 198 31.3057 198 31.3198 198C31.3339 198 31.3485 198 31.3635 198C31.3785 198 31.394 198 31.41 198C31.4259 198 31.4424 198 31.4592 198C31.4761 198 31.4934 198 31.5112 198C31.529 198 31.5472 198 31.5659 198C31.5846 198 31.6038 198 31.6234 198C31.643 198 31.663 198 31.6835 198C31.704 198 31.725 198 31.7464 198C31.7678 198 31.7897 198 31.812 198C31.8343 198 31.8571 198 31.8803 198C31.9035 198 31.9271 198 31.9513 198C31.9754 198 31.9999 198 32.0249 198C32.0499 198 32.0753 198 32.1012 198C32.1271 198 32.1534 198 32.1802 198C32.207 198 32.2342 198 32.2619 198C32.2895 198 32.3176 198 32.3462 198C32.3747 198 32.4037 198 32.4331 198C32.4625 198 32.4924 198 32.5227 198C32.553 198 32.5837 198 32.6149 198C32.6461 198 32.6777 198 32.7097 198C32.7418 198 32.7743 198 32.8072 198C32.8401 198 32.8734 198 32.9072 198C32.941 198 32.9752 198 33.0099 198C33.0445 198 33.0796 198 33.1151 198C33.1506 198 33.1866 198 33.2229 198C33.2593 198 33.2961 198 33.3333 198C33.3706 198 33.4082 198 33.4463 198C33.4844 198 33.5229 198 33.5618 198C33.6007 198 33.6401 198 33.6799 198C33.7197 198 33.7599 198 33.8005 198C33.8411 198 33.8822 198 33.9236 198C33.9651 198 34.007 198 34.0493 198C34.0916 198 34.1344 198 34.1775 198C34.2207 198 34.2643 198 34.3082 198C34.3522 198 34.3966 198 34.4415 198C34.4863 198 34.5315 198 34.5772 198C34.6228 198 34.6689 198 34.7154 198C34.7619 198 34.8088 198 34.8561 198C34.9034 198 34.9511 198 34.9993 198C35.0474 198 35.0959 198 35.1449 198C35.1939 198 35.2432 198 35.293 198C35.3428 198 35.393 198 35.4435 198C35.4941 198 35.5451 198 35.5965 198C35.6479 198 35.6998 198 35.752 198C35.8042 198 35.8568 198 35.9098 198C35.9629 198 36.0163 198 36.0701 198C36.1239 198 36.1782 198 36.2328 198C36.2874 198 36.3425 198 36.3979 198C36.4533 198 36.5092 198 36.5654 198C36.6216 198 36.6783 198 36.7353 198C36.7923 198 36.8498 198 36.9076 198C36.9654 198 37.0236 198 37.0822 198C37.1408 198 37.1999 198 37.2593 198C37.3187 198 37.3784 198 37.4386 198C37.4988 198 37.5594 198 37.6204 198C37.6813 198 37.7427 198 37.8044 198C37.8662 198 37.9283 198 37.9909 198C38.0534 198 38.1163 198 38.1796 198C38.2429 198 38.3066 198 38.3707 198C38.4348 198 38.4992 198 38.5641 198C38.6289 198 38.6941 198 38.7598 198C38.8254 198 38.8914 198 38.9577 198C39.0241 198 39.0909 198 39.158 198C39.2252 198 39.2927 198 39.3606 198C39.4285 198 39.4968 198 39.5654 198C39.6341 198 39.7031 198 39.7726 198C39.842 198 39.9118 198 39.9819 198C40.0521 198 40.1226 198 40.1936 198C40.2645 198 40.3358 198 40.4074 198C40.4791 198 40.5511 198 40.6235 198C40.6959 198 40.7687 198 40.8419 198C40.915 198 40.9886 198 41.0624 198C41.1363 198 41.2106 198 41.2852 198C41.3599 198 41.4348 198 41.5102 198C41.5856 198 41.6613 198 41.7374 198C41.8135 198 41.89 198 41.9668 198C42.0436 198 42.1208 198 42.1983 198C42.2759 198 42.3538 198 42.4321 198C42.5104 198 42.589 198 42.668 198C42.747 198 42.8263 198 42.9061 198C42.9858 198 43.0659 198 43.1463 198C43.2267 198 43.3075 198 43.3887 198C43.4698 198 43.5513 198 43.6332 198C43.715 198 43.7973 198 43.8798 198C43.9624 198 44.0453 198 44.1286 198C44.2119 198 44.2955 198 44.3795 198C44.4635 198 44.5478 198 44.6325 198C44.7171 198 44.8022 198 44.8876 198C44.9729 198 45.0587 198 45.1447 198C45.2308 198 45.3172 198 45.404 198C45.4908 198 45.5779 198 45.6654 198C45.7528 198 45.8406 198 45.9288 198C46.0169 198 46.1054 198 46.1943 198C46.2831 198 46.3723 198 46.4618 198C46.5513 198 46.6412 198 46.7314 198C46.8216 198 46.9121 198 47.003 198C47.0939 198 47.1851 198 47.2766 198C47.3682 198 47.4601 198 47.5523 198C47.6445 198 47.7371 198 47.83 198C47.9229 198 48.0161 198 48.1097 198C48.2033 198 48.2972 198 48.3914 198C48.4857 198 48.5802 198 48.6751 198C48.77 198 48.8652 198 48.9608 198C49.0564 198 49.1522 198 49.2485 198C49.3447 198 49.4412 198 49.5381 198C49.635 198 49.7322 198 49.8297 198C49.9272 198 50.0251 198 50.1232 198C50.2214 198 50.3199 198 50.4187 198C50.5176 198 50.6167 198 50.7162 198C50.8156 198 50.9154 198 51.0155 198C51.1156 198 51.2161 198 51.3168 198C51.4176 198 51.5187 198 51.62 198C51.7214 198 51.8231 198 51.9252 198C52.0272 198 52.1295 198 52.2322 198C52.3348 198 52.4378 198 52.5411 198C52.6444 198 52.748 198 52.8519 198C52.9558 198 53.0601 198 53.1646 198C53.2691 198 53.374 198 53.4791 198C53.5843 198 53.6898 198 53.7956 198C53.9013 198 54.0074 198 54.1138 198C54.2202 198 54.3269 198 54.434 198C54.541 198 54.6483 198 54.7559 198C54.8635 198 54.9715 198 55.0797 198C55.1879 198 55.2965 198 55.4053 198C55.5142 198 55.6233 198 55.7328 198C55.8422 198 55.952 198 56.062 198C56.1721 198 56.2824 198 56.3931 198C56.5037 198 56.6147 198 56.7259 198C56.8372 198 56.9487 198 57.0605 198C57.1724 198 57.2845 198 57.397 198C57.5094 198 57.6221 198 57.7351 198C57.8482 198 57.9615 198 58.0751 198C58.1887 198 58.3026 198 58.4168 198C58.531 198 58.6455 198 58.7602 198C58.875 198 58.9901 198 59.1054 198C59.2208 198 59.3364 198 59.4524 198C59.5683 198 59.6845 198 59.801 198C59.9175 198 60.0343 198 60.1514 198C60.2685 198 60.3858 198 60.5035 198C60.6211 198 60.739 198 60.8572 198C60.9755 198 61.0939 198 61.2127 198C61.3315 198 61.4506 198 61.5699 198C61.6892 198 61.8088 198 61.9287 198C62.0486 198 62.1688 198 62.2893 198C62.4097 198 62.5304 198 62.6514 198C62.7724 198 62.8937 198 63.0153 198C63.1368 198 63.2587 198 63.3808 198C63.5029 198 63.6253 198 63.7479 198C63.8706 198 63.9935 198 64.1167 198C64.2399 198 64.3633 198 64.4871 198C64.6108 198 64.7348 198 64.8591 198C64.9834 198 65.1079 198 65.2327 198C65.3575 198 65.4826 198 65.6079 198C65.7333 198 65.8589 198 65.9847 198C66.1106 198 66.2368 198 66.3632 198C66.4896 198 66.6162 198 66.7432 198C66.8701 198 66.9973 198 67.1247 198C67.2522 198 67.3799 198 67.5078 198C67.6358 198 67.764 198 67.8925 198C68.021 198 68.1498 198 68.2788 198C68.4078 198 68.537 198 68.6665 198C68.7961 198 68.9258 198 69.0559 198C69.1859 198 69.3162 198 69.4467 198C69.5772 198 69.708 198 69.8391 198C69.9701 198 70.1014 198 70.2329 198C70.3645 198 70.4963 198 70.6283 198C70.7604 198 70.8926 198 71.0252 198C71.1577 198 71.2905 198 71.4235 198C71.5566 198 71.6899 198 71.8234 198C71.9569 198 72.0907 198 72.2247 198C72.3587 198 72.493 198 72.6275 198C72.762 198 72.8967 198 73.0317 198C73.1667 198 73.3019 198 73.4374 198C73.5729 198 73.7086 198 73.8445 198C73.9805 198 74.1167 198 74.2531 198C74.3895 198 74.5262 198 74.6631 198C74.8 198 74.9372 198 75.0745 198C75.2119 198 75.3495 198 75.4874 198C75.6252 198 75.7633 198 75.9016 198C76.0399 198 76.1784 198 76.3172 198C76.456 198 76.595 198 76.7342 198C76.8735 198 77.0129 198 77.1526 198C77.2923 198 77.4323 198 77.5724 198C77.7126 198 77.853 198 77.9936 198C78.1342 198 78.275 198 78.4161 198C78.5571 198 78.6984 198 78.8399 198C78.9814 198 79.1232 198 79.2651 198C79.4071 198 79.5492 198 79.6916 198C79.834 198 79.9767 198 80.1195 198C80.2623 198 80.4054 198 80.5487 198C80.692 198 80.8355 198 80.9792 198C81.1229 198 81.2668 198 81.411 198C81.5551 198 81.6995 198 81.8441 198C81.9886 198 82.1334 198 82.2785 198C82.4235 198 82.5687 198 82.7141 198C82.8596 198 83.0052 198 83.1511 198C83.2969 198 83.443 198 83.5893 198C83.7356 198 83.882 198 84.0287 198C84.1754 198 84.3224 198 84.4695 198C84.6166 198 84.7639 198 84.9114 198C85.059 198 85.2067 198 85.3546 198C85.5026 198 85.6507 198 85.7991 198C85.9474 198 86.096 198 86.2447 198C86.3935 198 86.5424 198 86.6916 198C86.8407 198 86.9901 198 87.1396 198C87.2892 198 87.439 198 87.5889 198C87.7389 198 87.889 198 88.0394 198C88.1897 198 88.3403 198 88.491 198C88.6418 198 88.7927 198 88.9438 198C89.095 198 89.2463 198 89.3978 198C89.5493 198 89.7011 198 89.853 198C90.0049 198 90.157 198 90.3093 198C90.4616 198 90.614 198 90.7667 198C90.9194 198 91.0722 198 91.2253 198C91.3783 198 91.5316 198 91.685 198C91.8384 198 91.992 198 92.1458 198C92.2996 198 92.4536 198 92.6078 198C92.7619 198 92.9163 198 93.0708 198C93.2254 198 93.3801 198 93.535 198C93.6899 198 93.845 198 94.0002 198C94.1555 198 94.3109 198 94.4665 198C94.6222 198 94.778 198 94.9339 198C95.0899 198 95.2461 198 95.4024 198C95.5587 198 95.7152 198 95.8719 198C96.0286 198 96.1855 198 96.3425 198C96.4996 198 96.6568 198 96.8141 198C96.9715 198 97.1291 198 97.2868 198C97.4445 198 97.6024 198 97.7605 198C97.9186 198 98.0768 198 98.2352 198C98.3936 198 98.5522 198 98.7109 198C98.8697 198 99.0286 198 99.1877 198C99.3468 198 99.506 198 99.6654 198C99.8248 198 99.9844 198 100.144 198C100.304 198 100.464 198 100.624 198C100.784 198 100.944 198 101.105 198C101.265 198 101.426 198 101.586 198C101.747 198 101.908 198 102.069 198C102.23 198 102.391 198 102.552 198C102.714 198 102.875 198 103.037 198C103.199 198 103.36 198 103.522 198C103.684 198 103.846 198 104.009 198C104.171 198 104.333 198 104.496 198C104.659 198 104.821 198 104.984 198C105.147 198 105.31 198 105.473 198C105.637 198 105.8 198 105.963 198C106.127 198 106.291 198 106.454 198C106.618 198 106.782 198 106.946 198C107.11 198 107.275 198 107.439 198C107.603 198 107.768 198 107.932 198C108.097 198 108.262 198 108.427 198C108.592 198 108.757 198 108.922 198C109.087 198 109.253 198 109.418 198C109.584 198 109.749 198 109.915 198C110.081 198 110.247 198 110.413 198C110.579 198 110.745 198 110.912 198C111.078 198 111.244 198 111.411 198C111.578 198 111.744 198 111.911 198C112.078 198 112.245 198 112.412 198C112.579 198 112.747 198 112.914 198C113.082 198 113.249 198 113.417 198C113.584 198 113.752 198 113.92 198C114.088 198 114.256 198 114.424 198C114.593 198 114.761 198 114.929 198C115.098 198 115.266 198 115.435 198C115.604 198 115.772 198 115.941 198C116.11 198 116.279 198 116.449 198C116.618 198 116.787 198 116.956 198C117.126 198 117.295 198 117.465 198C117.635 198 117.804 198 117.974 198C118.144 198 118.314 198 118.484 198C118.655 198 118.825 198 118.995 198C119.166 198 119.336 198 119.507 198C119.677 198 119.848 198 120.019 198C120.19 198 120.361 198 120.532 198C120.703 198 120.874 198 121.045 198C121.216 198 121.388 198 121.559 198C121.731 198 121.902 198 122.074 198C122.246 198 122.417 198 122.589 198C122.761 198 122.933 198 123.105 198C123.278 198 123.45 198 123.622 198C123.795 198 123.967 198 124.14 198C124.312 198 124.485 198 124.657 198C124.83 198 125.003 198 125.176 198C125.349 198 125.522 198 125.695 198C125.868 198 126.042 198 126.215 198C126.388 198 126.562 198 126.735 198C126.909 198 127.083 198 127.256 198C127.43 198 127.604 198 127.778 198C127.952 198 128.126 198 128.3 198C128.474 198 128.648 198 128.822 198C128.997 198 129.171 198 129.346 198C129.52 198 129.695 198 129.869 198C130.044 198 130.219 198 130.394 198C130.568 198 130.743 198 130.918 198C131.093 198 131.268 198 131.444 198C131.619 198 131.794 198 131.969 198C132.145 198 132.32 198 132.496 198C132.671 198 132.847 198 133.022 198C133.198 198 133.374 198 133.55 198C133.726 198 133.901 198 134.077 198C134.253 198 134.43 198 134.606 198C134.782 198 134.958 198 135.134 198C135.311 198 135.487 198 135.664 198C135.84 198 136.017 198 136.193 198C136.37 198 136.546 198 136.723 198C136.9 198 137.077 198 137.254 198C137.431 198 137.608 198 137.785 198C137.962 198 138.139 198 138.316 198C138.493 198 138.67 198 138.848 198C139.025 198 139.202 198 139.38 198C139.557 198 139.735 198 139.912 198C140.09 198 140.267 198 140.445 198C140.623 198 140.801 198 140.978 198C141.156 198 141.334 198 141.512 198C141.69 198 141.868 198 142.046 198C142.224 198 142.402 198 142.58 198C142.759 198 142.937 198 143.115 198C143.294 198 143.472 198 143.65 198C143.829 198 144.007 198 144.186 198C144.364 198 144.543 198 144.721 198C144.9 198 145.079 198 145.257 198C145.436 198 145.615 198 145.794 198C145.973 198 146.152 198 146.331 198C146.509 198 146.688 198 146.867 198C147.047 198 147.226 198 147.405 198C147.584 198 147.763 198 147.942 198C148.121 198 148.301 198 148.48 198C148.659 198 148.839 198 149.018 198C149.198 198 149.377 198 149.556 198C149.736 198 149.915 198 150.095 198C150.275 198 150.454 198 150.634 198C150.814 198 150.993 198 151.173 198C151.353 198 151.532 198 151.712 198C151.892 198 152.072 198 152.252 198C152.432 198 152.611 198 152.791 198C152.971 198 153.151 198 153.331 198C153.511 198 153.691 198 153.871 198C154.052 198 154.232 198 154.412 198C154.592 198 154.772 198 154.952 198C155.132 198 155.313 198 155.493 198C155.673 198 155.853 198 156.034 198C156.214 198 156.394 198 156.575 198C156.755 198 156.935 198 157.116 198C157.296 198 157.477 198 157.657 198C157.838 198 158.018 198 158.199 198C158.379 198 158.56 198 158.74 198C158.921 198 159.101 198 159.282 198C159.462 198 159.643 198 159.823 198C160.004 198 160.185 198 160.365 198C160.546 198 160.727 198 160.907 198C161.088 198 161.269 198 161.449 198C161.63 198 161.811 198 161.992 198C162.172 198 162.353 198 162.534 198C162.714 198 162.895 198 163.076 198C163.257 198 163.438 198 163.618 198C163.799 198 163.98 198 164.161 198C164.342 198 164.522 198 164.703 198C164.884 198 165.065 198 165.246 198C165.426 198 165.607 198 165.788 198C165.969 198 166.15 198 166.331 198C166.512 198 166.692 198 166.873 198C167.054 198 167.235 198 167.416 198C167.597 198 167.777 198 167.958 198C168.139 198 168.32 198 168.501 198C168.682 198 168.862 198 169.043 198C169.224 198 169.405 198 169.586 198C169.767 198 169.947 198 170.128 198C170.309 198 170.49 198 170.671 198C170.851 198 171.032 198 171.213 198C171.394 198 171.575 198 171.755 198C171.936 198 172.117 198 172.298 198C172.478 198 172.659 198 172.84 198C173.02 198 173.201 198 173.382 198C173.562 198 173.743 198 173.924 198C174.104 198 174.285 198 174.466 198C174.646 198 174.827 198 175.008 198C175.188 198 175.369 198 175.549 198C175.73 198 175.91 198 176.091 198C176.271 198 176.452 198 176.632 198C176.813 198 176.993 198 177.174 198C177.354 198 177.534 198 177.715 198C177.895 198 178.075 198 178.256 198C178.436 198 178.616 198 178.797 198C178.977 198 179.157 198 179.337 198C179.518 198 179.698 198 179.878 198C180.058 198 180.238 198 180.418 198C180.598 198 180.778 198 180.958 198C181.139 198 181.319 198 181.498 198C181.678 198 181.858 198 182.038 198C182.218 198 182.398 198 182.578 198C182.758 198 182.937 198 183.117 198C183.297 198 183.477 198 183.656 198C183.836 198 184.016 198 184.195 198C184.375 198 184.554 198 184.734 198C184.913 198 185.093 198 185.272 198C185.452 198 185.631 198 185.81 198C185.99 198 186.169 198 186.348 198C186.528 198 186.707 198 186.886 198C187.065 198 187.244 198 187.423 198C187.602 198 187.781 198 187.96 198C188.139 198 188.318 198 188.497 198C188.676 198 188.855 198 189.034 198C189.212 198 189.391 198 189.57 198C189.749 198 189.927 198 190.106 198C190.284 198 190.463 198 190.641 198C190.82 198 190.998 198 191.176 198C191.355 198 191.533 198 191.711 198C191.89 198 192.068 198 192.246 198C192.424 198 192.602 198 192.78 198C192.958 198 193.136 198 193.314 198C193.492 198 193.669 198 193.847 198C194.025 198 194.203 198 194.38 198C194.558 198 194.735 198 194.913 198C195.09 198 195.268 198 195.445 198C195.622 198 195.8 198 195.977 198C196.154 198 196.331 198 196.508 198C196.686 198 196.863 198 197.04 198C197.216 198 197.393 198 197.57 198C197.747 198 197.924 198 198.1 198C198.277 198 198.454 198 198.63 198C198.807 198 198.983 198 199.159 198C199.336 198 199.512 198 199.688 198C199.864 198 200.041 198 200.217 198C200.393 198 200.569 198 200.745 198C200.92 198 201.096 198 201.272 198C201.448 198 201.623 198 201.799 198C201.975 198 202.15 198 202.325 198C202.501 198 202.676 198 202.851 198C203.027 198 203.202 198 203.377 198C203.552 198 203.727 198 203.902 198C204.077 198 204.252 198 204.426 198C204.601 198 204.776 198 204.95 198C205.125 198 205.299 198 205.474 198C205.648 198 205.822 198 205.996 198C206.171 198 206.345 198 206.519 198C206.693 198 206.866 198 207.04 198C207.214 198 207.388 198 207.561 198C207.735 198 207.909 198 208.082 198C208.255 198 208.429 198 208.602 198C208.775 198 208.948 198 209.121 198C209.294 198 209.467 198 209.64 198C209.813 198 209.986 198 210.158 198C210.331 198 210.503 198 210.676 198C210.848 198 211.021 198 211.193 198C211.365 198 211.537 198 211.709 198C211.881 198 212.053 198 212.225 198C212.397 198 212.568 198 212.74 198C212.911 198 213.083 198 213.254 198C213.426 198 213.597 198 213.768 198C213.939 198 214.11 198 214.281 198C214.452 198 214.623 198 214.793 198C214.964 198 215.135 198 215.305 198C215.475 198 215.646 198 215.816 198C215.986 198 216.156 198 216.326 198C216.496 198 216.666 198 216.836 198C217.006 198 217.175 198 217.345 198C217.514 198 217.684 198 217.853 198C218.022 198 218.191 198 218.36 198C218.529 198 218.698 198 218.867 198C219.036 198 219.204 198 219.373 198C219.542 198 219.71 198 219.878 198C220.046 198 220.215 198 220.383 198C220.551 198 220.719 198 220.886 198C221.054 198 221.222 198 221.389 198C221.557 198 221.724 198 221.891 198C222.059 198 222.226 198 222.393 198C222.56 198 222.726 198 222.893 198C223.06 198 223.226 198 223.393 198C223.559 198 223.726 198 223.892 198C224.058 198 224.224 198 224.39 198C224.556 198 224.722 198 224.887 198C225.053 198 225.218 198 225.384 198C225.549 198 225.714 198 225.879 198C226.044 198 226.209 198 226.374 198C226.539 198 226.703 198 226.868 198C227.032 198 227.197 198 227.361 198C227.525 198 227.689 198 227.853 198C228.017 198 228.18 198 228.344 198C228.508 198 228.671 198 228.834 198C228.998 198 229.161 198 229.324 198C229.487 198 229.65 198 229.812 198C229.975 198 230.138 198 230.3 198C230.462 198 230.625 198 230.787 198C230.949 198 231.111 198 231.273 198C231.434 198 231.596 198 231.757 198C231.919 198 232.08 198 232.241 198C232.403 198 232.564 198 232.724 198C232.885 198 233.046 198 233.206 198C233.367 198 233.527 198 233.687 198C233.848 198 234.008 198 234.167 198C234.327 198 234.487 198 234.647 198C234.806 198 234.965 198 235.125 198C235.284 198 235.443 198 235.602 198C235.761 198 235.919 198 236.078 198C236.236 198 236.395 198 236.553 198C236.711 198 236.869 198 237.027 198C237.185 198 237.342 198 237.5 198V193C237.342 193 237.185 193 237.027 193C236.869 193 236.711 193 236.553 193C236.395 193 236.236 193 236.078 193C235.919 193 235.761 193 235.602 193C235.443 193 235.284 193 235.125 193C234.965 193 234.806 193 234.647 193C234.487 193 234.327 193 234.167 193C234.008 193 233.848 193 233.687 193C233.527 193 233.367 193 233.206 193C233.046 193 232.885 193 232.724 193C232.564 193 232.403 193 232.241 193C232.08 193 231.919 193 231.757 193C231.596 193 231.434 193 231.273 193C231.111 193 230.949 193 230.787 193C230.625 193 230.462 193 230.3 193C230.138 193 229.975 193 229.812 193C229.65 193 229.487 193 229.324 193C229.161 193 228.998 193 228.834 193C228.671 193 228.508 193 228.344 193C228.18 193 228.017 193 227.853 193C227.689 193 227.525 193 227.361 193C227.197 193 227.032 193 226.868 193C226.703 193 226.539 193 226.374 193C226.209 193 226.044 193 225.879 193C225.714 193 225.549 193 225.384 193C225.218 193 225.053 193 224.887 193C224.722 193 224.556 193 224.39 193C224.224 193 224.058 193 223.892 193C223.726 193 223.559 193 223.393 193C223.226 193 223.06 193 222.893 193C222.726 193 222.56 193 222.393 193C222.226 193 222.059 193 221.891 193C221.724 193 221.557 193 221.389 193C221.222 193 221.054 193 220.886 193C220.719 193 220.551 193 220.383 193C220.215 193 220.046 193 219.878 193C219.71 193 219.542 193 219.373 193C219.204 193 219.036 193 218.867 193C218.698 193 218.529 193 218.36 193C218.191 193 218.022 193 217.853 193C217.684 193 217.514 193 217.345 193C217.175 193 217.006 193 216.836 193C216.666 193 216.496 193 216.326 193C216.156 193 215.986 193 215.816 193C215.646 193 215.475 193 215.305 193C215.135 193 214.964 193 214.793 193C214.623 193 214.452 193 214.281 193C214.11 193 213.939 193 213.768 193C213.597 193 213.426 193 213.254 193C213.083 193 212.911 193 212.74 193C212.568 193 212.397 193 212.225 193C212.053 193 211.881 193 211.709 193C211.537 193 211.365 193 211.193 193C211.021 193 210.848 193 210.676 193C210.503 193 210.331 193 210.158 193C209.986 193 209.813 193 209.64 193C209.467 193 209.294 193 209.121 193C208.948 193 208.775 193 208.602 193C208.429 193 208.255 193 208.082 193C207.909 193 207.735 193 207.561 193C207.388 193 207.214 193 207.04 193C206.866 193 206.693 193 206.519 193C206.345 193 206.171 193 205.996 193C205.822 193 205.648 193 205.474 193C205.299 193 205.125 193 204.95 193C204.776 193 204.601 193 204.426 193C204.252 193 204.077 193 203.902 193C203.727 193 203.552 193 203.377 193C203.202 193 203.027 193 202.851 193C202.676 193 202.501 193 202.325 193C202.15 193 201.975 193 201.799 193C201.623 193 201.448 193 201.272 193C201.096 193 200.92 193 200.745 193C200.569 193 200.393 193 200.217 193C200.041 193 199.864 193 199.688 193C199.512 193 199.336 193 199.159 193C198.983 193 198.807 193 198.63 193C198.454 193 198.277 193 198.1 193C197.924 193 197.747 193 197.57 193C197.393 193 197.216 193 197.04 193C196.863 193 196.686 193 196.508 193C196.331 193 196.154 193 195.977 193C195.8 193 195.622 193 195.445 193C195.268 193 195.09 193 194.913 193C194.735 193 194.558 193 194.38 193C194.203 193 194.025 193 193.847 193C193.669 193 193.492 193 193.314 193C193.136 193 192.958 193 192.78 193C192.602 193 192.424 193 192.246 193C192.068 193 191.89 193 191.711 193C191.533 193 191.355 193 191.176 193C190.998 193 190.82 193 190.641 193C190.463 193 190.284 193 190.106 193C189.927 193 189.749 193 189.57 193C189.391 193 189.212 193 189.034 193C188.855 193 188.676 193 188.497 193C188.318 193 188.139 193 187.96 193C187.781 193 187.602 193 187.423 193C187.244 193 187.065 193 186.886 193C186.707 193 186.528 193 186.348 193C186.169 193 185.99 193 185.81 193C185.631 193 185.452 193 185.272 193C185.093 193 184.913 193 184.734 193C184.554 193 184.375 193 184.195 193C184.016 193 183.836 193 183.656 193C183.477 193 183.297 193 183.117 193C182.937 193 182.758 193 182.578 193C182.398 193 182.218 193 182.038 193C181.858 193 181.678 193 181.498 193C181.319 193 181.139 193 180.958 193C180.778 193 180.598 193 180.418 193C180.238 193 180.058 193 179.878 193C179.698 193 179.518 193 179.337 193C179.157 193 178.977 193 178.797 193C178.616 193 178.436 193 178.256 193C178.075 193 177.895 193 177.715 193C177.534 193 177.354 193 177.174 193C176.993 193 176.813 193 176.632 193C176.452 193 176.271 193 176.091 193C175.91 193 175.73 193 175.549 193C175.369 193 175.188 193 175.008 193C174.827 193 174.646 193 174.466 193C174.285 193 174.104 193 173.924 193C173.743 193 173.562 193 173.382 193C173.201 193 173.02 193 172.84 193C172.659 193 172.478 193 172.298 193C172.117 193 171.936 193 171.755 193C171.575 193 171.394 193 171.213 193C171.032 193 170.851 193 170.671 193C170.49 193 170.309 193 170.128 193C169.947 193 169.767 193 169.586 193C169.405 193 169.224 193 169.043 193C168.862 193 168.682 193 168.501 193C168.32 193 168.139 193 167.958 193C167.777 193 167.597 193 167.416 193C167.235 193 167.054 193 166.873 193C166.692 193 166.512 193 166.331 193C166.15 193 165.969 193 165.788 193C165.607 193 165.426 193 165.246 193C165.065 193 164.884 193 164.703 193C164.522 193 164.342 193 164.161 193C163.98 193 163.799 193 163.618 193C163.438 193 163.257 193 163.076 193C162.895 193 162.714 193 162.534 193C162.353 193 162.172 193 161.992 193C161.811 193 161.63 193 161.449 193C161.269 193 161.088 193 160.907 193C160.727 193 160.546 193 160.365 193C160.185 193 160.004 193 159.823 193C159.643 193 159.462 193 159.282 193C159.101 193 158.921 193 158.74 193C158.56 193 158.379 193 158.199 193C158.018 193 157.838 193 157.657 193C157.477 193 157.296 193 157.116 193C156.935 193 156.755 193 156.575 193C156.394 193 156.214 193 156.034 193C155.853 193 155.673 193 155.493 193C155.313 193 155.132 193 154.952 193C154.772 193 154.592 193 154.412 193C154.232 193 154.052 193 153.871 193C153.691 193 153.511 193 153.331 193C153.151 193 152.971 193 152.791 193C152.611 193 152.432 193 152.252 193C152.072 193 151.892 193 151.712 193C151.532 193 151.353 193 151.173 193C150.993 193 150.814 193 150.634 193C150.454 193 150.275 193 150.095 193C149.915 193 149.736 193 149.556 193C149.377 193 149.198 193 149.018 193C148.839 193 148.659 193 148.48 193C148.301 193 148.121 193 147.942 193C147.763 193 147.584 193 147.405 193C147.226 193 147.047 193 146.867 193C146.688 193 146.509 193 146.331 193C146.152 193 145.973 193 145.794 193C145.615 193 145.436 193 145.257 193C145.079 193 144.9 193 144.721 193C144.543 193 144.364 193 144.186 193C144.007 193 143.829 193 143.65 193C143.472 193 143.294 193 143.115 193C142.937 193 142.759 193 142.58 193C142.402 193 142.224 193 142.046 193C141.868 193 141.69 193 141.512 193C141.334 193 141.156 193 140.978 193C140.801 193 140.623 193 140.445 193C140.267 193 140.09 193 139.912 193C139.735 193 139.557 193 139.38 193C139.202 193 139.025 193 138.848 193C138.67 193 138.493 193 138.316 193C138.139 193 137.962 193 137.785 193C137.608 193 137.431 193 137.254 193C137.077 193 136.9 193 136.723 193C136.546 193 136.37 193 136.193 193C136.017 193 135.84 193 135.664 193C135.487 193 135.311 193 135.134 193C134.958 193 134.782 193 134.606 193C134.43 193 134.253 193 134.077 193C133.901 193 133.726 193 133.55 193C133.374 193 133.198 193 133.022 193C132.847 193 132.671 193 132.496 193C132.32 193 132.145 193 131.969 193C131.794 193 131.619 193 131.444 193C131.268 193 131.093 193 130.918 193C130.743 193 130.568 193 130.394 193C130.219 193 130.044 193 129.869 193C129.695 193 129.52 193 129.346 193C129.171 193 128.997 193 128.822 193C128.648 193 128.474 193 128.3 193C128.126 193 127.952 193 127.778 193C127.604 193 127.43 193 127.256 193C127.083 193 126.909 193 126.735 193C126.562 193 126.388 193 126.215 193C126.042 193 125.868 193 125.695 193C125.522 193 125.349 193 125.176 193C125.003 193 124.83 193 124.657 193C124.485 193 124.312 193 124.14 193C123.967 193 123.795 193 123.622 193C123.45 193 123.278 193 123.105 193C122.933 193 122.761 193 122.589 193C122.417 193 122.246 193 122.074 193C121.902 193 121.731 193 121.559 193C121.388 193 121.216 193 121.045 193C120.874 193 120.703 193 120.532 193C120.361 193 120.19 193 120.019 193C119.848 193 119.677 193 119.507 193C119.336 193 119.166 193 118.995 193C118.825 193 118.655 193 118.484 193C118.314 193 118.144 193 117.974 193C117.804 193 117.635 193 117.465 193C117.295 193 117.126 193 116.956 193C116.787 193 116.618 193 116.449 193C116.279 193 116.11 193 115.941 193C115.772 193 115.604 193 115.435 193C115.266 193 115.098 193 114.929 193C114.761 193 114.593 193 114.424 193C114.256 193 114.088 193 113.92 193C113.752 193 113.584 193 113.417 193C113.249 193 113.082 193 112.914 193C112.747 193 112.579 193 112.412 193C112.245 193 112.078 193 111.911 193C111.744 193 111.578 193 111.411 193C111.244 193 111.078 193 110.912 193C110.745 193 110.579 193 110.413 193C110.247 193 110.081 193 109.915 193C109.749 193 109.584 193 109.418 193C109.253 193 109.087 193 108.922 193C108.757 193 108.592 193 108.427 193C108.262 193 108.097 193 107.932 193C107.768 193 107.603 193 107.439 193C107.275 193 107.11 193 106.946 193C106.782 193 106.618 193 106.454 193C106.291 193 106.127 193 105.963 193C105.8 193 105.637 193 105.473 193C105.31 193 105.147 193 104.984 193C104.821 193 104.659 193 104.496 193C104.333 193 104.171 193 104.009 193C103.846 193 103.684 193 103.522 193C103.36 193 103.199 193 103.037 193C102.875 193 102.714 193 102.552 193C102.391 193 102.23 193 102.069 193C101.908 193 101.747 193 101.586 193C101.426 193 101.265 193 101.105 193C100.944 193 100.784 193 100.624 193C100.464 193 100.304 193 100.144 193C99.9844 193 99.8248 193 99.6654 193C99.506 193 99.3468 193 99.1877 193C99.0286 193 98.8697 193 98.7109 193C98.5522 193 98.3936 193 98.2352 193C98.0768 193 97.9186 193 97.7605 193C97.6024 193 97.4445 193 97.2868 193C97.1291 193 96.9715 193 96.8141 193C96.6568 193 96.4996 193 96.3425 193C96.1855 193 96.0286 193 95.8719 193C95.7152 193 95.5587 193 95.4024 193C95.2461 193 95.0899 193 94.9339 193C94.778 193 94.6222 193 94.4665 193C94.3109 193 94.1555 193 94.0002 193C93.845 193 93.6899 193 93.535 193C93.3801 193 93.2254 193 93.0708 193C92.9163 193 92.7619 193 92.6078 193C92.4536 193 92.2996 193 92.1458 193C91.992 193 91.8384 193 91.685 193C91.5316 193 91.3783 193 91.2253 193C91.0722 193 90.9194 193 90.7667 193C90.614 193 90.4616 193 90.3093 193C90.157 193 90.0049 193 89.853 193C89.7011 193 89.5493 193 89.3978 193C89.2463 193 89.095 193 88.9438 193C88.7927 193 88.6418 193 88.491 193C88.3403 193 88.1897 193 88.0394 193C87.889 193 87.7389 193 87.5889 193C87.439 193 87.2892 193 87.1396 193C86.9901 193 86.8407 193 86.6916 193C86.5424 193 86.3935 193 86.2447 193C86.096 193 85.9474 193 85.7991 193C85.6507 193 85.5026 193 85.3546 193C85.2067 193 85.059 193 84.9114 193C84.7639 193 84.6166 193 84.4695 193C84.3224 193 84.1754 193 84.0287 193C83.882 193 83.7356 193 83.5893 193C83.443 193 83.2969 193 83.1511 193C83.0052 193 82.8596 193 82.7141 193C82.5687 193 82.4235 193 82.2785 193C82.1334 193 81.9886 193 81.8441 193C81.6995 193 81.5551 193 81.411 193C81.2668 193 81.1229 193 80.9792 193C80.8355 193 80.692 193 80.5487 193C80.4054 193 80.2623 193 80.1195 193C79.9767 193 79.834 193 79.6916 193C79.5492 193 79.4071 193 79.2651 193C79.1232 193 78.9814 193 78.8399 193C78.6984 193 78.5571 193 78.4161 193C78.275 193 78.1342 193 77.9936 193C77.853 193 77.7126 193 77.5724 193C77.4323 193 77.2923 193 77.1526 193C77.0129 193 76.8735 193 76.7342 193C76.595 193 76.456 193 76.3172 193C76.1784 193 76.0399 193 75.9016 193C75.7633 193 75.6252 193 75.4874 193C75.3495 193 75.2119 193 75.0745 193C74.9372 193 74.8 193 74.6631 193C74.5262 193 74.3895 193 74.2531 193C74.1167 193 73.9805 193 73.8445 193C73.7086 193 73.5729 193 73.4374 193C73.3019 193 73.1667 193 73.0317 193C72.8967 193 72.762 193 72.6275 193C72.493 193 72.3587 193 72.2247 193C72.0907 193 71.9569 193 71.8234 193C71.6899 193 71.5566 193 71.4235 193C71.2905 193 71.1577 193 71.0252 193C70.8926 193 70.7604 193 70.6283 193C70.4963 193 70.3645 193 70.2329 193C70.1014 193 69.9701 193 69.8391 193C69.708 193 69.5772 193 69.4467 193C69.3162 193 69.1859 193 69.0559 193C68.9258 193 68.7961 193 68.6665 193C68.537 193 68.4078 193 68.2788 193C68.1498 193 68.021 193 67.8925 193C67.764 193 67.6358 193 67.5078 193C67.3799 193 67.2522 193 67.1247 193C66.9973 193 66.8701 193 66.7432 193C66.6162 193 66.4896 193 66.3632 193C66.2368 193 66.1106 193 65.9847 193C65.8589 193 65.7333 193 65.6079 193C65.4826 193 65.3575 193 65.2327 193C65.1079 193 64.9834 193 64.8591 193C64.7348 193 64.6108 193 64.4871 193C64.3633 193 64.2399 193 64.1167 193C63.9935 193 63.8706 193 63.7479 193C63.6253 193 63.5029 193 63.3808 193C63.2587 193 63.1368 193 63.0153 193C62.8937 193 62.7724 193 62.6514 193C62.5304 193 62.4097 193 62.2893 193C62.1688 193 62.0486 193 61.9287 193C61.8088 193 61.6892 193 61.5699 193C61.4506 193 61.3315 193 61.2127 193C61.0939 193 60.9755 193 60.8572 193C60.739 193 60.6211 193 60.5035 193C60.3858 193 60.2685 193 60.1514 193C60.0343 193 59.9175 193 59.801 193C59.6845 193 59.5683 193 59.4524 193C59.3364 193 59.2208 193 59.1054 193C58.9901 193 58.875 193 58.7602 193C58.6455 193 58.531 193 58.4168 193C58.3026 193 58.1887 193 58.0751 193C57.9615 193 57.8482 193 57.7351 193C57.6221 193 57.5094 193 57.397 193C57.2845 193 57.1724 193 57.0605 193C56.9487 193 56.8372 193 56.7259 193C56.6147 193 56.5037 193 56.3931 193C56.2824 193 56.1721 193 56.062 193C55.952 193 55.8422 193 55.7328 193C55.6233 193 55.5142 193 55.4053 193C55.2965 193 55.1879 193 55.0797 193C54.9715 193 54.8635 193 54.7559 193C54.6483 193 54.541 193 54.434 193C54.3269 193 54.2202 193 54.1138 193C54.0074 193 53.9013 193 53.7956 193C53.6898 193 53.5843 193 53.4791 193C53.374 193 53.2691 193 53.1646 193C53.0601 193 52.9558 193 52.8519 193C52.748 193 52.6444 193 52.5411 193C52.4378 193 52.3348 193 52.2322 193C52.1295 193 52.0272 193 51.9252 193C51.8231 193 51.7214 193 51.62 193C51.5187 193 51.4176 193 51.3168 193C51.2161 193 51.1156 193 51.0155 193C50.9154 193 50.8156 193 50.7162 193C50.6167 193 50.5176 193 50.4187 193C50.3199 193 50.2214 193 50.1232 193C50.0251 193 49.9272 193 49.8297 193C49.7322 193 49.635 193 49.5381 193C49.4412 193 49.3447 193 49.2485 193C49.1522 193 49.0564 193 48.9608 193C48.8652 193 48.77 193 48.6751 193C48.5802 193 48.4857 193 48.3914 193C48.2972 193 48.2033 193 48.1097 193C48.0161 193 47.9229 193 47.83 193C47.7371 193 47.6445 193 47.5523 193C47.4601 193 47.3682 193 47.2766 193C47.1851 193 47.0939 193 47.003 193C46.9121 193 46.8216 193 46.7314 193C46.6412 193 46.5513 193 46.4618 193C46.3723 193 46.2831 193 46.1943 193C46.1054 193 46.0169 193 45.9288 193C45.8406 193 45.7528 193 45.6654 193C45.5779 193 45.4908 193 45.404 193C45.3172 193 45.2308 193 45.1447 193C45.0587 193 44.9729 193 44.8876 193C44.8022 193 44.7171 193 44.6325 193C44.5478 193 44.4635 193 44.3795 193C44.2955 193 44.2119 193 44.1286 193C44.0453 193 43.9624 193 43.8798 193C43.7973 193 43.715 193 43.6332 193C43.5513 193 43.4698 193 43.3887 193C43.3075 193 43.2267 193 43.1463 193C43.0659 193 42.9858 193 42.9061 193C42.8263 193 42.747 193 42.668 193C42.589 193 42.5104 193 42.4321 193C42.3538 193 42.2759 193 42.1983 193C42.1208 193 42.0436 193 41.9668 193C41.89 193 41.8135 193 41.7374 193C41.6613 193 41.5856 193 41.5102 193C41.4348 193 41.3599 193 41.2852 193C41.2106 193 41.1363 193 41.0624 193C40.9886 193 40.915 193 40.8419 193C40.7687 193 40.6959 193 40.6235 193C40.5511 193 40.4791 193 40.4074 193C40.3358 193 40.2645 193 40.1936 193C40.1226 193 40.0521 193 39.9819 193C39.9118 193 39.842 193 39.7726 193C39.7031 193 39.6341 193 39.5654 193C39.4968 193 39.4285 193 39.3606 193C39.2927 193 39.2252 193 39.158 193C39.0909 193 39.0241 193 38.9577 193C38.8914 193 38.8254 193 38.7598 193C38.6941 193 38.6289 193 38.5641 193C38.4992 193 38.4348 193 38.3707 193C38.3066 193 38.2429 193 38.1796 193C38.1163 193 38.0534 193 37.9909 193C37.9283 193 37.8662 193 37.8044 193C37.7427 193 37.6813 193 37.6204 193C37.5594 193 37.4988 193 37.4386 193C37.3784 193 37.3187 193 37.2593 193C37.1999 193 37.1408 193 37.0822 193C37.0236 193 36.9654 193 36.9076 193C36.8498 193 36.7923 193 36.7353 193C36.6783 193 36.6216 193 36.5654 193C36.5092 193 36.4533 193 36.3979 193C36.3425 193 36.2874 193 36.2328 193C36.1782 193 36.1239 193 36.0701 193C36.0163 193 35.9629 193 35.9098 193C35.8568 193 35.8042 193 35.752 193C35.6998 193 35.6479 193 35.5965 193C35.5451 193 35.4941 193 35.4435 193C35.393 193 35.3428 193 35.293 193C35.2432 193 35.1939 193 35.1449 193C35.0959 193 35.0474 193 34.9993 193C34.9511 193 34.9034 193 34.8561 193C34.8088 193 34.7619 193 34.7154 193C34.6689 193 34.6228 193 34.5772 193C34.5315 193 34.4863 193 34.4415 193C34.3966 193 34.3522 193 34.3082 193C34.2643 193 34.2207 193 34.1775 193C34.1344 193 34.0916 193 34.0493 193C34.007 193 33.9651 193 33.9236 193C33.8822 193 33.8411 193 33.8005 193C33.7599 193 33.7197 193 33.6799 193C33.6401 193 33.6007 193 33.5618 193C33.5229 193 33.4844 193 33.4463 193C33.4082 193 33.3706 193 33.3333 193C33.2961 193 33.2593 193 33.2229 193C33.1866 193 33.1506 193 33.1151 193C33.0796 193 33.0445 193 33.0099 193C32.9752 193 32.941 193 32.9072 193C32.8734 193 32.8401 193 32.8072 193C32.7743 193 32.7418 193 32.7097 193C32.6777 193 32.6461 193 32.6149 193C32.5837 193 32.553 193 32.5227 193C32.4924 193 32.4625 193 32.4331 193C32.4037 193 32.3747 193 32.3462 193C32.3176 193 32.2895 193 32.2619 193C32.2342 193 32.207 193 32.1802 193C32.1534 193 32.1271 193 32.1012 193C32.0753 193 32.0499 193 32.0249 193C31.9999 193 31.9754 193 31.9513 193C31.9271 193 31.9035 193 31.8803 193C31.8571 193 31.8343 193 31.812 193C31.7897 193 31.7678 193 31.7464 193C31.725 193 31.704 193 31.6835 193C31.663 193 31.643 193 31.6234 193C31.6038 193 31.5846 193 31.5659 193C31.5472 193 31.529 193 31.5112 193C31.4934 193 31.4761 193 31.4592 193C31.4424 193 31.4259 193 31.41 193C31.394 193 31.3785 193 31.3635 193C31.3485 193 31.3339 193 31.3198 193C31.3057 193 31.292 193 31.2788 193C31.2656 193 31.2529 193 31.2406 193C31.2283 193 31.2165 193 31.2052 193C31.1939 193 31.183 193 31.1726 193C31.1622 193 31.1522 193 31.1428 193C31.1333 193 31.1243 193 31.1157 193C31.1072 193 31.0991 193 31.0915 193C31.0839 193 31.0768 193 31.0701 193C31.0635 193 31.0573 193 31.0516 193C31.0459 193 31.0406 193 31.0358 193C31.0311 193 31.0268 193 31.023 193C31.0191 193 31.0158 193 31.0129 193C31.0101 193 31.0077 193 31.0058 193C31.0038 193 31.0024 193 31.0014 193C31.0005 193 31 193 31 195.5Z" fill="#FBCF24"/>
<path d="M0.863031 194.203C0.146472 195.383 0.522339 196.92 1.70255 197.637C2.88277 198.354 4.42041 197.978 5.13697 196.797L0.863031 194.203ZM105 27.5L107.157 26.2357L105.038 22.6208L102.863 26.2026L105 27.5ZM170.843 144.764C171.542 145.955 173.073 146.355 174.264 145.657C175.455 144.958 175.855 143.427 175.157 142.236L170.843 144.764ZM123.155 1.23273C122.455 0.0425567 120.923 -0.354894 119.733 0.344999C118.543 1.04489 118.145 2.5771 118.845 3.76727L123.155 1.23273ZM219.5 170V172.5H223.87L221.655 168.733L219.5 170ZM107.135 75.3004C107.853 74.1212 107.48 72.583 106.3 71.8648C105.121 71.1466 103.583 71.5204 102.865 72.6996L107.135 75.3004ZM31 195.5L28.8648 194.2L26.5502 198H31V195.5ZM237.5 198C238.881 198 240 196.881 240 195.5C240 194.119 238.881 193 237.5 193V198ZM5.13697 196.797C25.0537 163.993 50.5537 121.993 71.0745 88.1944C81.3349 71.2949 90.3505 56.4457 96.8011 45.8213C100.026 40.5091 102.61 36.2532 104.388 33.3252C105.277 31.8613 105.964 30.7293 106.429 29.9634C106.662 29.5804 106.839 29.2889 106.957 29.0932C107.017 28.9953 107.062 28.9213 107.092 28.8719C107.107 28.8472 107.118 28.8285 107.126 28.8161C107.129 28.8099 107.132 28.8053 107.134 28.8021C107.135 28.8006 107.136 28.7994 107.136 28.7986C107.137 28.7978 107.137 28.7974 105 27.5C102.863 26.2026 102.863 26.2029 102.862 26.2037C102.862 26.2045 102.861 26.2057 102.86 26.2072C102.858 26.2103 102.855 26.2151 102.852 26.2212C102.844 26.2337 102.833 26.2523 102.818 26.277C102.788 26.3265 102.743 26.4004 102.683 26.4983C102.565 26.694 102.388 26.9855 102.155 27.3685C101.69 28.1344 101.003 29.2664 100.114 30.7303C98.3363 33.6583 95.7524 37.9142 92.5271 43.2264C86.0766 53.8508 77.061 68.7 66.8006 85.5995C46.2798 119.399 20.7798 161.399 0.863031 194.203L5.13697 196.797ZM102.843 28.7643L170.843 144.764L175.157 142.236L107.157 26.2357L102.843 28.7643ZM118.845 3.76727L217.345 171.267L221.655 168.733L123.155 1.23273L118.845 3.76727ZM219.5 167.5H76.5V172.5H219.5V167.5ZM102.865 72.6996L28.8648 194.2L33.1352 196.8L107.135 75.3004L102.865 72.6996ZM31 195.5C31 198 31.0005 198 31.0014 198C31.0024 198 31.0038 198 31.0058 198C31.0077 198 31.0101 198 31.0129 198C31.0158 198 31.0191 198 31.023 198C31.0268 198 31.0311 198 31.0358 198C31.0406 198 31.0459 198 31.0516 198C31.0573 198 31.0635 198 31.0701 198C31.0768 198 31.0839 198 31.0915 198C31.0991 198 31.1072 198 31.1157 198C31.1243 198 31.1333 198 31.1428 198C31.1522 198 31.1622 198 31.1726 198C31.183 198 31.1939 198 31.2052 198C31.2165 198 31.2283 198 31.2406 198C31.2529 198 31.2656 198 31.2788 198C31.292 198 31.3057 198 31.3198 198C31.3339 198 31.3485 198 31.3635 198C31.3785 198 31.394 198 31.41 198C31.4259 198 31.4424 198 31.4592 198C31.4761 198 31.4934 198 31.5112 198C31.529 198 31.5472 198 31.5659 198C31.5846 198 31.6038 198 31.6234 198C31.643 198 31.663 198 31.6835 198C31.704 198 31.725 198 31.7464 198C31.7678 198 31.7897 198 31.812 198C31.8343 198 31.8571 198 31.8803 198C31.9035 198 31.9271 198 31.9513 198C31.9754 198 31.9999 198 32.0249 198C32.0499 198 32.0753 198 32.1012 198C32.1271 198 32.1534 198 32.1802 198C32.207 198 32.2342 198 32.2619 198C32.2895 198 32.3176 198 32.3462 198C32.3747 198 32.4037 198 32.4331 198C32.4625 198 32.4924 198 32.5227 198C32.553 198 32.5837 198 32.6149 198C32.6461 198 32.6777 198 32.7097 198C32.7418 198 32.7743 198 32.8072 198C32.8401 198 32.8734 198 32.9072 198C32.941 198 32.9752 198 33.0099 198C33.0445 198 33.0796 198 33.1151 198C33.1506 198 33.1866 198 33.2229 198C33.2593 198 33.2961 198 33.3333 198C33.3706 198 33.4082 198 33.4463 198C33.4844 198 33.5229 198 33.5618 198C33.6007 198 33.6401 198 33.6799 198C33.7197 198 33.7599 198 33.8005 198C33.8411 198 33.8822 198 33.9236 198C33.9651 198 34.007 198 34.0493 198C34.0916 198 34.1344 198 34.1775 198C34.2207 198 34.2643 198 34.3082 198C34.3522 198 34.3966 198 34.4415 198C34.4863 198 34.5315 198 34.5772 198C34.6228 198 34.6689 198 34.7154 198C34.7619 198 34.8088 198 34.8561 198C34.9034 198 34.9511 198 34.9993 198C35.0474 198 35.0959 198 35.1449 198C35.1939 198 35.2432 198 35.293 198C35.3428 198 35.393 198 35.4435 198C35.4941 198 35.5451 198 35.5965 198C35.6479 198 35.6998 198 35.752 198C35.8042 198 35.8568 198 35.9098 198C35.9629 198 36.0163 198 36.0701 198C36.1239 198 36.1782 198 36.2328 198C36.2874 198 36.3425 198 36.3979 198C36.4533 198 36.5092 198 36.5654 198C36.6216 198 36.6783 198 36.7353 198C36.7923 198 36.8498 198 36.9076 198C36.9654 198 37.0236 198 37.0822 198C37.1408 198 37.1999 198 37.2593 198C37.3187 198 37.3784 198 37.4386 198C37.4988 198 37.5594 198 37.6204 198C37.6813 198 37.7427 198 37.8044 198C37.8662 198 37.9283 198 37.9909 198C38.0534 198 38.1163 198 38.1796 198C38.2429 198 38.3066 198 38.3707 198C38.4348 198 38.4992 198 38.5641 198C38.6289 198 38.6941 198 38.7598 198C38.8254 198 38.8914 198 38.9577 198C39.0241 198 39.0909 198 39.158 198C39.2252 198 39.2927 198 39.3606 198C39.4285 198 39.4968 198 39.5654 198C39.6341 198 39.7031 198 39.7726 198C39.842 198 39.9118 198 39.9819 198C40.0521 198 40.1226 198 40.1936 198C40.2645 198 40.3358 198 40.4074 198C40.4791 198 40.5511 198 40.6235 198C40.6959 198 40.7687 198 40.8419 198C40.915 198 40.9886 198 41.0624 198C41.1363 198 41.2106 198 41.2852 198C41.3599 198 41.4348 198 41.5102 198C41.5856 198 41.6613 198 41.7374 198C41.8135 198 41.89 198 41.9668 198C42.0436 198 42.1208 198 42.1983 198C42.2759 198 42.3538 198 42.4321 198C42.5104 198 42.589 198 42.668 198C42.747 198 42.8263 198 42.9061 198C42.9858 198 43.0659 198 43.1463 198C43.2267 198 43.3075 198 43.3887 198C43.4698 198 43.5513 198 43.6332 198C43.715 198 43.7973 198 43.8798 198C43.9624 198 44.0453 198 44.1286 198C44.2119 198 44.2955 198 44.3795 198C44.4635 198 44.5478 198 44.6325 198C44.7171 198 44.8022 198 44.8876 198C44.9729 198 45.0587 198 45.1447 198C45.2308 198 45.3172 198 45.404 198C45.4908 198 45.5779 198 45.6654 198C45.7528 198 45.8406 198 45.9288 198C46.0169 198 46.1054 198 46.1943 198C46.2831 198 46.3723 198 46.4618 198C46.5513 198 46.6412 198 46.7314 198C46.8216 198 46.9121 198 47.003 198C47.0939 198 47.1851 198 47.2766 198C47.3682 198 47.4601 198 47.5523 198C47.6445 198 47.7371 198 47.83 198C47.9229 198 48.0161 198 48.1097 198C48.2033 198 48.2972 198 48.3914 198C48.4857 198 48.5802 198 48.6751 198C48.77 198 48.8652 198 48.9608 198C49.0564 198 49.1522 198 49.2485 198C49.3447 198 49.4412 198 49.5381 198C49.635 198 49.7322 198 49.8297 198C49.9272 198 50.0251 198 50.1232 198C50.2214 198 50.3199 198 50.4187 198C50.5176 198 50.6167 198 50.7162 198C50.8156 198 50.9154 198 51.0155 198C51.1156 198 51.2161 198 51.3168 198C51.4176 198 51.5187 198 51.62 198C51.7214 198 51.8231 198 51.9252 198C52.0272 198 52.1295 198 52.2322 198C52.3348 198 52.4378 198 52.5411 198C52.6444 198 52.748 198 52.8519 198C52.9558 198 53.0601 198 53.1646 198C53.2691 198 53.374 198 53.4791 198C53.5843 198 53.6898 198 53.7956 198C53.9013 198 54.0074 198 54.1138 198C54.2202 198 54.3269 198 54.434 198C54.541 198 54.6483 198 54.7559 198C54.8635 198 54.9715 198 55.0797 198C55.1879 198 55.2965 198 55.4053 198C55.5142 198 55.6233 198 55.7328 198C55.8422 198 55.952 198 56.062 198C56.1721 198 56.2824 198 56.3931 198C56.5037 198 56.6147 198 56.7259 198C56.8372 198 56.9487 198 57.0605 198C57.1724 198 57.2845 198 57.397 198C57.5094 198 57.6221 198 57.7351 198C57.8482 198 57.9615 198 58.0751 198C58.1887 198 58.3026 198 58.4168 198C58.531 198 58.6455 198 58.7602 198C58.875 198 58.9901 198 59.1054 198C59.2208 198 59.3364 198 59.4524 198C59.5683 198 59.6845 198 59.801 198C59.9175 198 60.0343 198 60.1514 198C60.2685 198 60.3858 198 60.5035 198C60.6211 198 60.739 198 60.8572 198C60.9755 198 61.0939 198 61.2127 198C61.3315 198 61.4506 198 61.5699 198C61.6892 198 61.8088 198 61.9287 198C62.0486 198 62.1688 198 62.2893 198C62.4097 198 62.5304 198 62.6514 198C62.7724 198 62.8937 198 63.0153 198C63.1368 198 63.2587 198 63.3808 198C63.5029 198 63.6253 198 63.7479 198C63.8706 198 63.9935 198 64.1167 198C64.2399 198 64.3633 198 64.4871 198C64.6108 198 64.7348 198 64.8591 198C64.9834 198 65.1079 198 65.2327 198C65.3575 198 65.4826 198 65.6079 198C65.7333 198 65.8589 198 65.9847 198C66.1106 198 66.2368 198 66.3632 198C66.4896 198 66.6162 198 66.7432 198C66.8701 198 66.9973 198 67.1247 198C67.2522 198 67.3799 198 67.5078 198C67.6358 198 67.764 198 67.8925 198C68.021 198 68.1498 198 68.2788 198C68.4078 198 68.537 198 68.6665 198C68.7961 198 68.9258 198 69.0559 198C69.1859 198 69.3162 198 69.4467 198C69.5772 198 69.708 198 69.8391 198C69.9701 198 70.1014 198 70.2329 198C70.3645 198 70.4963 198 70.6283 198C70.7604 198 70.8926 198 71.0252 198C71.1577 198 71.2905 198 71.4235 198C71.5566 198 71.6899 198 71.8234 198C71.9569 198 72.0907 198 72.2247 198C72.3587 198 72.493 198 72.6275 198C72.762 198 72.8967 198 73.0317 198C73.1667 198 73.3019 198 73.4374 198C73.5729 198 73.7086 198 73.8445 198C73.9805 198 74.1167 198 74.2531 198C74.3895 198 74.5262 198 74.6631 198C74.8 198 74.9372 198 75.0745 198C75.2119 198 75.3495 198 75.4874 198C75.6252 198 75.7633 198 75.9016 198C76.0399 198 76.1784 198 76.3172 198C76.456 198 76.595 198 76.7342 198C76.8735 198 77.0129 198 77.1526 198C77.2923 198 77.4323 198 77.5724 198C77.7126 198 77.853 198 77.9936 198C78.1342 198 78.275 198 78.4161 198C78.5571 198 78.6984 198 78.8399 198C78.9814 198 79.1232 198 79.2651 198C79.4071 198 79.5492 198 79.6916 198C79.834 198 79.9767 198 80.1195 198C80.2623 198 80.4054 198 80.5487 198C80.692 198 80.8355 198 80.9792 198C81.1229 198 81.2668 198 81.411 198C81.5551 198 81.6995 198 81.8441 198C81.9886 198 82.1334 198 82.2785 198C82.4235 198 82.5687 198 82.7141 198C82.8596 198 83.0052 198 83.1511 198C83.2969 198 83.443 198 83.5893 198C83.7356 198 83.882 198 84.0287 198C84.1754 198 84.3224 198 84.4695 198C84.6166 198 84.7639 198 84.9114 198C85.059 198 85.2067 198 85.3546 198C85.5026 198 85.6507 198 85.7991 198C85.9474 198 86.096 198 86.2447 198C86.3935 198 86.5424 198 86.6916 198C86.8407 198 86.9901 198 87.1396 198C87.2892 198 87.439 198 87.5889 198C87.7389 198 87.889 198 88.0394 198C88.1897 198 88.3403 198 88.491 198C88.6418 198 88.7927 198 88.9438 198C89.095 198 89.2463 198 89.3978 198C89.5493 198 89.7011 198 89.853 198C90.0049 198 90.157 198 90.3093 198C90.4616 198 90.614 198 90.7667 198C90.9194 198 91.0722 198 91.2253 198C91.3783 198 91.5316 198 91.685 198C91.8384 198 91.992 198 92.1458 198C92.2996 198 92.4536 198 92.6078 198C92.7619 198 92.9163 198 93.0708 198C93.2254 198 93.3801 198 93.535 198C93.6899 198 93.845 198 94.0002 198C94.1555 198 94.3109 198 94.4665 198C94.6222 198 94.778 198 94.9339 198C95.0899 198 95.2461 198 95.4024 198C95.5587 198 95.7152 198 95.8719 198C96.0286 198 96.1855 198 96.3425 198C96.4996 198 96.6568 198 96.8141 198C96.9715 198 97.1291 198 97.2868 198C97.4445 198 97.6024 198 97.7605 198C97.9186 198 98.0768 198 98.2352 198C98.3936 198 98.5522 198 98.7109 198C98.8697 198 99.0286 198 99.1877 198C99.3468 198 99.506 198 99.6654 198C99.8248 198 99.9844 198 100.144 198C100.304 198 100.464 198 100.624 198C100.784 198 100.944 198 101.105 198C101.265 198 101.426 198 101.586 198C101.747 198 101.908 198 102.069 198C102.23 198 102.391 198 102.552 198C102.714 198 102.875 198 103.037 198C103.199 198 103.36 198 103.522 198C103.684 198 103.846 198 104.009 198C104.171 198 104.333 198 104.496 198C104.659 198 104.821 198 104.984 198C105.147 198 105.31 198 105.473 198C105.637 198 105.8 198 105.963 198C106.127 198 106.291 198 106.454 198C106.618 198 106.782 198 106.946 198C107.11 198 107.275 198 107.439 198C107.603 198 107.768 198 107.932 198C108.097 198 108.262 198 108.427 198C108.592 198 108.757 198 108.922 198C109.087 198 109.253 198 109.418 198C109.584 198 109.749 198 109.915 198C110.081 198 110.247 198 110.413 198C110.579 198 110.745 198 110.912 198C111.078 198 111.244 198 111.411 198C111.578 198 111.744 198 111.911 198C112.078 198 112.245 198 112.412 198C112.579 198 112.747 198 112.914 198C113.082 198 113.249 198 113.417 198C113.584 198 113.752 198 113.92 198C114.088 198 114.256 198 114.424 198C114.593 198 114.761 198 114.929 198C115.098 198 115.266 198 115.435 198C115.604 198 115.772 198 115.941 198C116.11 198 116.279 198 116.449 198C116.618 198 116.787 198 116.956 198C117.126 198 117.295 198 117.465 198C117.635 198 117.804 198 117.974 198C118.144 198 118.314 198 118.484 198C118.655 198 118.825 198 118.995 198C119.166 198 119.336 198 119.507 198C119.677 198 119.848 198 120.019 198C120.19 198 120.361 198 120.532 198C120.703 198 120.874 198 121.045 198C121.216 198 121.388 198 121.559 198C121.731 198 121.902 198 122.074 198C122.246 198 122.417 198 122.589 198C122.761 198 122.933 198 123.105 198C123.278 198 123.45 198 123.622 198C123.795 198 123.967 198 124.14 198C124.312 198 124.485 198 124.657 198C124.83 198 125.003 198 125.176 198C125.349 198 125.522 198 125.695 198C125.868 198 126.042 198 126.215 198C126.388 198 126.562 198 126.735 198C126.909 198 127.083 198 127.256 198C127.43 198 127.604 198 127.778 198C127.952 198 128.126 198 128.3 198C128.474 198 128.648 198 128.822 198C128.997 198 129.171 198 129.346 198C129.52 198 129.695 198 129.869 198C130.044 198 130.219 198 130.394 198C130.568 198 130.743 198 130.918 198C131.093 198 131.268 198 131.444 198C131.619 198 131.794 198 131.969 198C132.145 198 132.32 198 132.496 198C132.671 198 132.847 198 133.022 198C133.198 198 133.374 198 133.55 198C133.726 198 133.901 198 134.077 198C134.253 198 134.43 198 134.606 198C134.782 198 134.958 198 135.134 198C135.311 198 135.487 198 135.664 198C135.84 198 136.017 198 136.193 198C136.37 198 136.546 198 136.723 198C136.9 198 137.077 198 137.254 198C137.431 198 137.608 198 137.785 198C137.962 198 138.139 198 138.316 198C138.493 198 138.67 198 138.848 198C139.025 198 139.202 198 139.38 198C139.557 198 139.735 198 139.912 198C140.09 198 140.267 198 140.445 198C140.623 198 140.801 198 140.978 198C141.156 198 141.334 198 141.512 198C141.69 198 141.868 198 142.046 198C142.224 198 142.402 198 142.58 198C142.759 198 142.937 198 143.115 198C143.294 198 143.472 198 143.65 198C143.829 198 144.007 198 144.186 198C144.364 198 144.543 198 144.721 198C144.9 198 145.079 198 145.257 198C145.436 198 145.615 198 145.794 198C145.973 198 146.152 198 146.331 198C146.509 198 146.688 198 146.867 198C147.047 198 147.226 198 147.405 198C147.584 198 147.763 198 147.942 198C148.121 198 148.301 198 148.48 198C148.659 198 148.839 198 149.018 198C149.198 198 149.377 198 149.556 198C149.736 198 149.915 198 150.095 198C150.275 198 150.454 198 150.634 198C150.814 198 150.993 198 151.173 198C151.353 198 151.532 198 151.712 198C151.892 198 152.072 198 152.252 198C152.432 198 152.611 198 152.791 198C152.971 198 153.151 198 153.331 198C153.511 198 153.691 198 153.871 198C154.052 198 154.232 198 154.412 198C154.592 198 154.772 198 154.952 198C155.132 198 155.313 198 155.493 198C155.673 198 155.853 198 156.034 198C156.214 198 156.394 198 156.575 198C156.755 198 156.935 198 157.116 198C157.296 198 157.477 198 157.657 198C157.838 198 158.018 198 158.199 198C158.379 198 158.56 198 158.74 198C158.921 198 159.101 198 159.282 198C159.462 198 159.643 198 159.823 198C160.004 198 160.185 198 160.365 198C160.546 198 160.727 198 160.907 198C161.088 198 161.269 198 161.449 198C161.63 198 161.811 198 161.992 198C162.172 198 162.353 198 162.534 198C162.714 198 162.895 198 163.076 198C163.257 198 163.438 198 163.618 198C163.799 198 163.98 198 164.161 198C164.342 198 164.522 198 164.703 198C164.884 198 165.065 198 165.246 198C165.426 198 165.607 198 165.788 198C165.969 198 166.15 198 166.331 198C166.512 198 166.692 198 166.873 198C167.054 198 167.235 198 167.416 198C167.597 198 167.777 198 167.958 198C168.139 198 168.32 198 168.501 198C168.682 198 168.862 198 169.043 198C169.224 198 169.405 198 169.586 198C169.767 198 169.947 198 170.128 198C170.309 198 170.49 198 170.671 198C170.851 198 171.032 198 171.213 198C171.394 198 171.575 198 171.755 198C171.936 198 172.117 198 172.298 198C172.478 198 172.659 198 172.84 198C173.02 198 173.201 198 173.382 198C173.562 198 173.743 198 173.924 198C174.104 198 174.285 198 174.466 198C174.646 198 174.827 198 175.008 198C175.188 198 175.369 198 175.549 198C175.73 198 175.91 198 176.091 198C176.271 198 176.452 198 176.632 198C176.813 198 176.993 198 177.174 198C177.354 198 177.534 198 177.715 198C177.895 198 178.075 198 178.256 198C178.436 198 178.616 198 178.797 198C178.977 198 179.157 198 179.337 198C179.518 198 179.698 198 179.878 198C180.058 198 180.238 198 180.418 198C180.598 198 180.778 198 180.958 198C181.139 198 181.319 198 181.498 198C181.678 198 181.858 198 182.038 198C182.218 198 182.398 198 182.578 198C182.758 198 182.937 198 183.117 198C183.297 198 183.477 198 183.656 198C183.836 198 184.016 198 184.195 198C184.375 198 184.554 198 184.734 198C184.913 198 185.093 198 185.272 198C185.452 198 185.631 198 185.81 198C185.99 198 186.169 198 186.348 198C186.528 198 186.707 198 186.886 198C187.065 198 187.244 198 187.423 198C187.602 198 187.781 198 187.96 198C188.139 198 188.318 198 188.497 198C188.676 198 188.855 198 189.034 198C189.212 198 189.391 198 189.57 198C189.749 198 189.927 198 190.106 198C190.284 198 190.463 198 190.641 198C190.82 198 190.998 198 191.176 198C191.355 198 191.533 198 191.711 198C191.89 198 192.068 198 192.246 198C192.424 198 192.602 198 192.78 198C192.958 198 193.136 198 193.314 198C193.492 198 193.669 198 193.847 198C194.025 198 194.203 198 194.38 198C194.558 198 194.735 198 194.913 198C195.09 198 195.268 198 195.445 198C195.622 198 195.8 198 195.977 198C196.154 198 196.331 198 196.508 198C196.686 198 196.863 198 197.04 198C197.216 198 197.393 198 197.57 198C197.747 198 197.924 198 198.1 198C198.277 198 198.454 198 198.63 198C198.807 198 198.983 198 199.159 198C199.336 198 199.512 198 199.688 198C199.864 198 200.041 198 200.217 198C200.393 198 200.569 198 200.745 198C200.92 198 201.096 198 201.272 198C201.448 198 201.623 198 201.799 198C201.975 198 202.15 198 202.325 198C202.501 198 202.676 198 202.851 198C203.027 198 203.202 198 203.377 198C203.552 198 203.727 198 203.902 198C204.077 198 204.252 198 204.426 198C204.601 198 204.776 198 204.95 198C205.125 198 205.299 198 205.474 198C205.648 198 205.822 198 205.996 198C206.171 198 206.345 198 206.519 198C206.693 198 206.866 198 207.04 198C207.214 198 207.388 198 207.561 198C207.735 198 207.909 198 208.082 198C208.255 198 208.429 198 208.602 198C208.775 198 208.948 198 209.121 198C209.294 198 209.467 198 209.64 198C209.813 198 209.986 198 210.158 198C210.331 198 210.503 198 210.676 198C210.848 198 211.021 198 211.193 198C211.365 198 211.537 198 211.709 198C211.881 198 212.053 198 212.225 198C212.397 198 212.568 198 212.74 198C212.911 198 213.083 198 213.254 198C213.426 198 213.597 198 213.768 198C213.939 198 214.11 198 214.281 198C214.452 198 214.623 198 214.793 198C214.964 198 215.135 198 215.305 198C215.475 198 215.646 198 215.816 198C215.986 198 216.156 198 216.326 198C216.496 198 216.666 198 216.836 198C217.006 198 217.175 198 217.345 198C217.514 198 217.684 198 217.853 198C218.022 198 218.191 198 218.36 198C218.529 198 218.698 198 218.867 198C219.036 198 219.204 198 219.373 198C219.542 198 219.71 198 219.878 198C220.046 198 220.215 198 220.383 198C220.551 198 220.719 198 220.886 198C221.054 198 221.222 198 221.389 198C221.557 198 221.724 198 221.891 198C222.059 198 222.226 198 222.393 198C222.56 198 222.726 198 222.893 198C223.06 198 223.226 198 223.393 198C223.559 198 223.726 198 223.892 198C224.058 198 224.224 198 224.39 198C224.556 198 224.722 198 224.887 198C225.053 198 225.218 198 225.384 198C225.549 198 225.714 198 225.879 198C226.044 198 226.209 198 226.374 198C226.539 198 226.703 198 226.868 198C227.032 198 227.197 198 227.361 198C227.525 198 227.689 198 227.853 198C228.017 198 228.18 198 228.344 198C228.508 198 228.671 198 228.834 198C228.998 198 229.161 198 229.324 198C229.487 198 229.65 198 229.812 198C229.975 198 230.138 198 230.3 198C230.462 198 230.625 198 230.787 198C230.949 198 231.111 198 231.273 198C231.434 198 231.596 198 231.757 198C231.919 198 232.08 198 232.241 198C232.403 198 232.564 198 232.724 198C232.885 198 233.046 198 233.206 198C233.367 198 233.527 198 233.687 198C233.848 198 234.008 198 234.167 198C234.327 198 234.487 198 234.647 198C234.806 198 234.965 198 235.125 198C235.284 198 235.443 198 235.602 198C235.761 198 235.919 198 236.078 198C236.236 198 236.395 198 236.553 198C236.711 198 236.869 198 237.027 198C237.185 198 237.342 198 237.5 198V193C237.342 193 237.185 193 237.027 193C236.869 193 236.711 193 236.553 193C236.395 193 236.236 193 236.078 193C235.919 193 235.761 193 235.602 193C235.443 193 235.284 193 235.125 193C234.965 193 234.806 193 234.647 193C234.487 193 234.327 193 234.167 193C234.008 193 233.848 193 233.687 193C233.527 193 233.367 193 233.206 193C233.046 193 232.885 193 232.724 193C232.564 193 232.403 193 232.241 193C232.08 193 231.919 193 231.757 193C231.596 193 231.434 193 231.273 193C231.111 193 230.949 193 230.787 193C230.625 193 230.462 193 230.3 193C230.138 193 229.975 193 229.812 193C229.65 193 229.487 193 229.324 193C229.161 193 228.998 193 228.834 193C228.671 193 228.508 193 228.344 193C228.18 193 228.017 193 227.853 193C227.689 193 227.525 193 227.361 193C227.197 193 227.032 193 226.868 193C226.703 193 226.539 193 226.374 193C226.209 193 226.044 193 225.879 193C225.714 193 225.549 193 225.384 193C225.218 193 225.053 193 224.887 193C224.722 193 224.556 193 224.39 193C224.224 193 224.058 193 223.892 193C223.726 193 223.559 193 223.393 193C223.226 193 223.06 193 222.893 193C222.726 193 222.56 193 222.393 193C222.226 193 222.059 193 221.891 193C221.724 193 221.557 193 221.389 193C221.222 193 221.054 193 220.886 193C220.719 193 220.551 193 220.383 193C220.215 193 220.046 193 219.878 193C219.71 193 219.542 193 219.373 193C219.204 193 219.036 193 218.867 193C218.698 193 218.529 193 218.36 193C218.191 193 218.022 193 217.853 193C217.684 193 217.514 193 217.345 193C217.175 193 217.006 193 216.836 193C216.666 193 216.496 193 216.326 193C216.156 193 215.986 193 215.816 193C215.646 193 215.475 193 215.305 193C215.135 193 214.964 193 214.793 193C214.623 193 214.452 193 214.281 193C214.11 193 213.939 193 213.768 193C213.597 193 213.426 193 213.254 193C213.083 193 212.911 193 212.74 193C212.568 193 212.397 193 212.225 193C212.053 193 211.881 193 211.709 193C211.537 193 211.365 193 211.193 193C211.021 193 210.848 193 210.676 193C210.503 193 210.331 193 210.158 193C209.986 193 209.813 193 209.64 193C209.467 193 209.294 193 209.121 193C208.948 193 208.775 193 208.602 193C208.429 193 208.255 193 208.082 193C207.909 193 207.735 193 207.561 193C207.388 193 207.214 193 207.04 193C206.866 193 206.693 193 206.519 193C206.345 193 206.171 193 205.996 193C205.822 193 205.648 193 205.474 193C205.299 193 205.125 193 204.95 193C204.776 193 204.601 193 204.426 193C204.252 193 204.077 193 203.902 193C203.727 193 203.552 193 203.377 193C203.202 193 203.027 193 202.851 193C202.676 193 202.501 193 202.325 193C202.15 193 201.975 193 201.799 193C201.623 193 201.448 193 201.272 193C201.096 193 200.92 193 200.745 193C200.569 193 200.393 193 200.217 193C200.041 193 199.864 193 199.688 193C199.512 193 199.336 193 199.159 193C198.983 193 198.807 193 198.63 193C198.454 193 198.277 193 198.1 193C197.924 193 197.747 193 197.57 193C197.393 193 197.216 193 197.04 193C196.863 193 196.686 193 196.508 193C196.331 193 196.154 193 195.977 193C195.8 193 195.622 193 195.445 193C195.268 193 195.09 193 194.913 193C194.735 193 194.558 193 194.38 193C194.203 193 194.025 193 193.847 193C193.669 193 193.492 193 193.314 193C193.136 193 192.958 193 192.78 193C192.602 193 192.424 193 192.246 193C192.068 193 191.89 193 191.711 193C191.533 193 191.355 193 191.176 193C190.998 193 190.82 193 190.641 193C190.463 193 190.284 193 190.106 193C189.927 193 189.749 193 189.57 193C189.391 193 189.212 193 189.034 193C188.855 193 188.676 193 188.497 193C188.318 193 188.139 193 187.96 193C187.781 193 187.602 193 187.423 193C187.244 193 187.065 193 186.886 193C186.707 193 186.528 193 186.348 193C186.169 193 185.99 193 185.81 193C185.631 193 185.452 193 185.272 193C185.093 193 184.913 193 184.734 193C184.554 193 184.375 193 184.195 193C184.016 193 183.836 193 183.656 193C183.477 193 183.297 193 183.117 193C182.937 193 182.758 193 182.578 193C182.398 193 182.218 193 182.038 193C181.858 193 181.678 193 181.498 193C181.319 193 181.139 193 180.958 193C180.778 193 180.598 193 180.418 193C180.238 193 180.058 193 179.878 193C179.698 193 179.518 193 179.337 193C179.157 193 178.977 193 178.797 193C178.616 193 178.436 193 178.256 193C178.075 193 177.895 193 177.715 193C177.534 193 177.354 193 177.174 193C176.993 193 176.813 193 176.632 193C176.452 193 176.271 193 176.091 193C175.91 193 175.73 193 175.549 193C175.369 193 175.188 193 175.008 193C174.827 193 174.646 193 174.466 193C174.285 193 174.104 193 173.924 193C173.743 193 173.562 193 173.382 193C173.201 193 173.02 193 172.84 193C172.659 193 172.478 193 172.298 193C172.117 193 171.936 193 171.755 193C171.575 193 171.394 193 171.213 193C171.032 193 170.851 193 170.671 193C170.49 193 170.309 193 170.128 193C169.947 193 169.767 193 169.586 193C169.405 193 169.224 193 169.043 193C168.862 193 168.682 193 168.501 193C168.32 193 168.139 193 167.958 193C167.777 193 167.597 193 167.416 193C167.235 193 167.054 193 166.873 193C166.692 193 166.512 193 166.331 193C166.15 193 165.969 193 165.788 193C165.607 193 165.426 193 165.246 193C165.065 193 164.884 193 164.703 193C164.522 193 164.342 193 164.161 193C163.98 193 163.799 193 163.618 193C163.438 193 163.257 193 163.076 193C162.895 193 162.714 193 162.534 193C162.353 193 162.172 193 161.992 193C161.811 193 161.63 193 161.449 193C161.269 193 161.088 193 160.907 193C160.727 193 160.546 193 160.365 193C160.185 193 160.004 193 159.823 193C159.643 193 159.462 193 159.282 193C159.101 193 158.921 193 158.74 193C158.56 193 158.379 193 158.199 193C158.018 193 157.838 193 157.657 193C157.477 193 157.296 193 157.116 193C156.935 193 156.755 193 156.575 193C156.394 193 156.214 193 156.034 193C155.853 193 155.673 193 155.493 193C155.313 193 155.132 193 154.952 193C154.772 193 154.592 193 154.412 193C154.232 193 154.052 193 153.871 193C153.691 193 153.511 193 153.331 193C153.151 193 152.971 193 152.791 193C152.611 193 152.432 193 152.252 193C152.072 193 151.892 193 151.712 193C151.532 193 151.353 193 151.173 193C150.993 193 150.814 193 150.634 193C150.454 193 150.275 193 150.095 193C149.915 193 149.736 193 149.556 193C149.377 193 149.198 193 149.018 193C148.839 193 148.659 193 148.48 193C148.301 193 148.121 193 147.942 193C147.763 193 147.584 193 147.405 193C147.226 193 147.047 193 146.867 193C146.688 193 146.509 193 146.331 193C146.152 193 145.973 193 145.794 193C145.615 193 145.436 193 145.257 193C145.079 193 144.9 193 144.721 193C144.543 193 144.364 193 144.186 193C144.007 193 143.829 193 143.65 193C143.472 193 143.294 193 143.115 193C142.937 193 142.759 193 142.58 193C142.402 193 142.224 193 142.046 193C141.868 193 141.69 193 141.512 193C141.334 193 141.156 193 140.978 193C140.801 193 140.623 193 140.445 193C140.267 193 140.09 193 139.912 193C139.735 193 139.557 193 139.38 193C139.202 193 139.025 193 138.848 193C138.67 193 138.493 193 138.316 193C138.139 193 137.962 193 137.785 193C137.608 193 137.431 193 137.254 193C137.077 193 136.9 193 136.723 193C136.546 193 136.37 193 136.193 193C136.017 193 135.84 193 135.664 193C135.487 193 135.311 193 135.134 193C134.958 193 134.782 193 134.606 193C134.43 193 134.253 193 134.077 193C133.901 193 133.726 193 133.55 193C133.374 193 133.198 193 133.022 193C132.847 193 132.671 193 132.496 193C132.32 193 132.145 193 131.969 193C131.794 193 131.619 193 131.444 193C131.268 193 131.093 193 130.918 193C130.743 193 130.568 193 130.394 193C130.219 193 130.044 193 129.869 193C129.695 193 129.52 193 129.346 193C129.171 193 128.997 193 128.822 193C128.648 193 128.474 193 128.3 193C128.126 193 127.952 193 127.778 193C127.604 193 127.43 193 127.256 193C127.083 193 126.909 193 126.735 193C126.562 193 126.388 193 126.215 193C126.042 193 125.868 193 125.695 193C125.522 193 125.349 193 125.176 193C125.003 193 124.83 193 124.657 193C124.485 193 124.312 193 124.14 193C123.967 193 123.795 193 123.622 193C123.45 193 123.278 193 123.105 193C122.933 193 122.761 193 122.589 193C122.417 193 122.246 193 122.074 193C121.902 193 121.731 193 121.559 193C121.388 193 121.216 193 121.045 193C120.874 193 120.703 193 120.532 193C120.361 193 120.19 193 120.019 193C119.848 193 119.677 193 119.507 193C119.336 193 119.166 193 118.995 193C118.825 193 118.655 193 118.484 193C118.314 193 118.144 193 117.974 193C117.804 193 117.635 193 117.465 193C117.295 193 117.126 193 116.956 193C116.787 193 116.618 193 116.449 193C116.279 193 116.11 193 115.941 193C115.772 193 115.604 193 115.435 193C115.266 193 115.098 193 114.929 193C114.761 193 114.593 193 114.424 193C114.256 193 114.088 193 113.92 193C113.752 193 113.584 193 113.417 193C113.249 193 113.082 193 112.914 193C112.747 193 112.579 193 112.412 193C112.245 193 112.078 193 111.911 193C111.744 193 111.578 193 111.411 193C111.244 193 111.078 193 110.912 193C110.745 193 110.579 193 110.413 193C110.247 193 110.081 193 109.915 193C109.749 193 109.584 193 109.418 193C109.253 193 109.087 193 108.922 193C108.757 193 108.592 193 108.427 193C108.262 193 108.097 193 107.932 193C107.768 193 107.603 193 107.439 193C107.275 193 107.11 193 106.946 193C106.782 193 106.618 193 106.454 193C106.291 193 106.127 193 105.963 193C105.8 193 105.637 193 105.473 193C105.31 193 105.147 193 104.984 193C104.821 193 104.659 193 104.496 193C104.333 193 104.171 193 104.009 193C103.846 193 103.684 193 103.522 193C103.36 193 103.199 193 103.037 193C102.875 193 102.714 193 102.552 193C102.391 193 102.23 193 102.069 193C101.908 193 101.747 193 101.586 193C101.426 193 101.265 193 101.105 193C100.944 193 100.784 193 100.624 193C100.464 193 100.304 193 100.144 193C99.9844 193 99.8248 193 99.6654 193C99.506 193 99.3468 193 99.1877 193C99.0286 193 98.8697 193 98.7109 193C98.5522 193 98.3936 193 98.2352 193C98.0768 193 97.9186 193 97.7605 193C97.6024 193 97.4445 193 97.2868 193C97.1291 193 96.9715 193 96.8141 193C96.6568 193 96.4996 193 96.3425 193C96.1855 193 96.0286 193 95.8719 193C95.7152 193 95.5587 193 95.4024 193C95.2461 193 95.0899 193 94.9339 193C94.778 193 94.6222 193 94.4665 193C94.3109 193 94.1555 193 94.0002 193C93.845 193 93.6899 193 93.535 193C93.3801 193 93.2254 193 93.0708 193C92.9163 193 92.7619 193 92.6078 193C92.4536 193 92.2996 193 92.1458 193C91.992 193 91.8384 193 91.685 193C91.5316 193 91.3783 193 91.2253 193C91.0722 193 90.9194 193 90.7667 193C90.614 193 90.4616 193 90.3093 193C90.157 193 90.0049 193 89.853 193C89.7011 193 89.5493 193 89.3978 193C89.2463 193 89.095 193 88.9438 193C88.7927 193 88.6418 193 88.491 193C88.3403 193 88.1897 193 88.0394 193C87.889 193 87.7389 193 87.5889 193C87.439 193 87.2892 193 87.1396 193C86.9901 193 86.8407 193 86.6916 193C86.5424 193 86.3935 193 86.2447 193C86.096 193 85.9474 193 85.7991 193C85.6507 193 85.5026 193 85.3546 193C85.2067 193 85.059 193 84.9114 193C84.7639 193 84.6166 193 84.4695 193C84.3224 193 84.1754 193 84.0287 193C83.882 193 83.7356 193 83.5893 193C83.443 193 83.2969 193 83.1511 193C83.0052 193 82.8596 193 82.7141 193C82.5687 193 82.4235 193 82.2785 193C82.1334 193 81.9886 193 81.8441 193C81.6995 193 81.5551 193 81.411 193C81.2668 193 81.1229 193 80.9792 193C80.8355 193 80.692 193 80.5487 193C80.4054 193 80.2623 193 80.1195 193C79.9767 193 79.834 193 79.6916 193C79.5492 193 79.4071 193 79.2651 193C79.1232 193 78.9814 193 78.8399 193C78.6984 193 78.5571 193 78.4161 193C78.275 193 78.1342 193 77.9936 193C77.853 193 77.7126 193 77.5724 193C77.4323 193 77.2923 193 77.1526 193C77.0129 193 76.8735 193 76.7342 193C76.595 193 76.456 193 76.3172 193C76.1784 193 76.0399 193 75.9016 193C75.7633 193 75.6252 193 75.4874 193C75.3495 193 75.2119 193 75.0745 193C74.9372 193 74.8 193 74.6631 193C74.5262 193 74.3895 193 74.2531 193C74.1167 193 73.9805 193 73.8445 193C73.7086 193 73.5729 193 73.4374 193C73.3019 193 73.1667 193 73.0317 193C72.8967 193 72.762 193 72.6275 193C72.493 193 72.3587 193 72.2247 193C72.0907 193 71.9569 193 71.8234 193C71.6899 193 71.5566 193 71.4235 193C71.2905 193 71.1577 193 71.0252 193C70.8926 193 70.7604 193 70.6283 193C70.4963 193 70.3645 193 70.2329 193C70.1014 193 69.9701 193 69.8391 193C69.708 193 69.5772 193 69.4467 193C69.3162 193 69.1859 193 69.0559 193C68.9258 193 68.7961 193 68.6665 193C68.537 193 68.4078 193 68.2788 193C68.1498 193 68.021 193 67.8925 193C67.764 193 67.6358 193 67.5078 193C67.3799 193 67.2522 193 67.1247 193C66.9973 193 66.8701 193 66.7432 193C66.6162 193 66.4896 193 66.3632 193C66.2368 193 66.1106 193 65.9847 193C65.8589 193 65.7333 193 65.6079 193C65.4826 193 65.3575 193 65.2327 193C65.1079 193 64.9834 193 64.8591 193C64.7348 193 64.6108 193 64.4871 193C64.3633 193 64.2399 193 64.1167 193C63.9935 193 63.8706 193 63.7479 193C63.6253 193 63.5029 193 63.3808 193C63.2587 193 63.1368 193 63.0153 193C62.8937 193 62.7724 193 62.6514 193C62.5304 193 62.4097 193 62.2893 193C62.1688 193 62.0486 193 61.9287 193C61.8088 193 61.6892 193 61.5699 193C61.4506 193 61.3315 193 61.2127 193C61.0939 193 60.9755 193 60.8572 193C60.739 193 60.6211 193 60.5035 193C60.3858 193 60.2685 193 60.1514 193C60.0343 193 59.9175 193 59.801 193C59.6845 193 59.5683 193 59.4524 193C59.3364 193 59.2208 193 59.1054 193C58.9901 193 58.875 193 58.7602 193C58.6455 193 58.531 193 58.4168 193C58.3026 193 58.1887 193 58.0751 193C57.9615 193 57.8482 193 57.7351 193C57.6221 193 57.5094 193 57.397 193C57.2845 193 57.1724 193 57.0605 193C56.9487 193 56.8372 193 56.7259 193C56.6147 193 56.5037 193 56.3931 193C56.2824 193 56.1721 193 56.062 193C55.952 193 55.8422 193 55.7328 193C55.6233 193 55.5142 193 55.4053 193C55.2965 193 55.1879 193 55.0797 193C54.9715 193 54.8635 193 54.7559 193C54.6483 193 54.541 193 54.434 193C54.3269 193 54.2202 193 54.1138 193C54.0074 193 53.9013 193 53.7956 193C53.6898 193 53.5843 193 53.4791 193C53.374 193 53.2691 193 53.1646 193C53.0601 193 52.9558 193 52.8519 193C52.748 193 52.6444 193 52.5411 193C52.4378 193 52.3348 193 52.2322 193C52.1295 193 52.0272 193 51.9252 193C51.8231 193 51.7214 193 51.62 193C51.5187 193 51.4176 193 51.3168 193C51.2161 193 51.1156 193 51.0155 193C50.9154 193 50.8156 193 50.7162 193C50.6167 193 50.5176 193 50.4187 193C50.3199 193 50.2214 193 50.1232 193C50.0251 193 49.9272 193 49.8297 193C49.7322 193 49.635 193 49.5381 193C49.4412 193 49.3447 193 49.2485 193C49.1522 193 49.0564 193 48.9608 193C48.8652 193 48.77 193 48.6751 193C48.5802 193 48.4857 193 48.3914 193C48.2972 193 48.2033 193 48.1097 193C48.0161 193 47.9229 193 47.83 193C47.7371 193 47.6445 193 47.5523 193C47.4601 193 47.3682 193 47.2766 193C47.1851 193 47.0939 193 47.003 193C46.9121 193 46.8216 193 46.7314 193C46.6412 193 46.5513 193 46.4618 193C46.3723 193 46.2831 193 46.1943 193C46.1054 193 46.0169 193 45.9288 193C45.8406 193 45.7528 193 45.6654 193C45.5779 193 45.4908 193 45.404 193C45.3172 193 45.2308 193 45.1447 193C45.0587 193 44.9729 193 44.8876 193C44.8022 193 44.7171 193 44.6325 193C44.5478 193 44.4635 193 44.3795 193C44.2955 193 44.2119 193 44.1286 193C44.0453 193 43.9624 193 43.8798 193C43.7973 193 43.715 193 43.6332 193C43.5513 193 43.4698 193 43.3887 193C43.3075 193 43.2267 193 43.1463 193C43.0659 193 42.9858 193 42.9061 193C42.8263 193 42.747 193 42.668 193C42.589 193 42.5104 193 42.4321 193C42.3538 193 42.2759 193 42.1983 193C42.1208 193 42.0436 193 41.9668 193C41.89 193 41.8135 193 41.7374 193C41.6613 193 41.5856 193 41.5102 193C41.4348 193 41.3599 193 41.2852 193C41.2106 193 41.1363 193 41.0624 193C40.9886 193 40.915 193 40.8419 193C40.7687 193 40.6959 193 40.6235 193C40.5511 193 40.4791 193 40.4074 193C40.3358 193 40.2645 193 40.1936 193C40.1226 193 40.0521 193 39.9819 193C39.9118 193 39.842 193 39.7726 193C39.7031 193 39.6341 193 39.5654 193C39.4968 193 39.4285 193 39.3606 193C39.2927 193 39.2252 193 39.158 193C39.0909 193 39.0241 193 38.9577 193C38.8914 193 38.8254 193 38.7598 193C38.6941 193 38.6289 193 38.5641 193C38.4992 193 38.4348 193 38.3707 193C38.3066 193 38.2429 193 38.1796 193C38.1163 193 38.0534 193 37.9909 193C37.9283 193 37.8662 193 37.8044 193C37.7427 193 37.6813 193 37.6204 193C37.5594 193 37.4988 193 37.4386 193C37.3784 193 37.3187 193 37.2593 193C37.1999 193 37.1408 193 37.0822 193C37.0236 193 36.9654 193 36.9076 193C36.8498 193 36.7923 193 36.7353 193C36.6783 193 36.6216 193 36.5654 193C36.5092 193 36.4533 193 36.3979 193C36.3425 193 36.2874 193 36.2328 193C36.1782 193 36.1239 193 36.0701 193C36.0163 193 35.9629 193 35.9098 193C35.8568 193 35.8042 193 35.752 193C35.6998 193 35.6479 193 35.5965 193C35.5451 193 35.4941 193 35.4435 193C35.393 193 35.3428 193 35.293 193C35.2432 193 35.1939 193 35.1449 193C35.0959 193 35.0474 193 34.9993 193C34.9511 193 34.9034 193 34.8561 193C34.8088 193 34.7619 193 34.7154 193C34.6689 193 34.6228 193 34.5772 193C34.5315 193 34.4863 193 34.4415 193C34.3966 193 34.3522 193 34.3082 193C34.2643 193 34.2207 193 34.1775 193C34.1344 193 34.0916 193 34.0493 193C34.007 193 33.9651 193 33.9236 193C33.8822 193 33.8411 193 33.8005 193C33.7599 193 33.7197 193 33.6799 193C33.6401 193 33.6007 193 33.5618 193C33.5229 193 33.4844 193 33.4463 193C33.4082 193 33.3706 193 33.3333 193C33.2961 193 33.2593 193 33.2229 193C33.1866 193 33.1506 193 33.1151 193C33.0796 193 33.0445 193 33.0099 193C32.9752 193 32.941 193 32.9072 193C32.8734 193 32.8401 193 32.8072 193C32.7743 193 32.7418 193 32.7097 193C32.6777 193 32.6461 193 32.6149 193C32.5837 193 32.553 193 32.5227 193C32.4924 193 32.4625 193 32.4331 193C32.4037 193 32.3747 193 32.3462 193C32.3176 193 32.2895 193 32.2619 193C32.2342 193 32.207 193 32.1802 193C32.1534 193 32.1271 193 32.1012 193C32.0753 193 32.0499 193 32.0249 193C31.9999 193 31.9754 193 31.9513 193C31.9271 193 31.9035 193 31.8803 193C31.8571 193 31.8343 193 31.812 193C31.7897 193 31.7678 193 31.7464 193C31.725 193 31.704 193 31.6835 193C31.663 193 31.643 193 31.6234 193C31.6038 193 31.5846 193 31.5659 193C31.5472 193 31.529 193 31.5112 193C31.4934 193 31.4761 193 31.4592 193C31.4424 193 31.4259 193 31.41 193C31.394 193 31.3785 193 31.3635 193C31.3485 193 31.3339 193 31.3198 193C31.3057 193 31.292 193 31.2788 193C31.2656 193 31.2529 193 31.2406 193C31.2283 193 31.2165 193 31.2052 193C31.1939 193 31.183 193 31.1726 193C31.1622 193 31.1522 193 31.1428 193C31.1333 193 31.1243 193 31.1157 193C31.1072 193 31.0991 193 31.0915 193C31.0839 193 31.0768 193 31.0701 193C31.0635 193 31.0573 193 31.0516 193C31.0459 193 31.0406 193 31.0358 193C31.0311 193 31.0268 193 31.023 193C31.0191 193 31.0158 193 31.0129 193C31.0101 193 31.0077 193 31.0058 193C31.0038 193 31.0024 193 31.0014 193C31.0005 193 31 193 31 195.5Z" fill="url(#paint0_linear_129_3)"/>
<defs>
<linearGradient id="paint0_linear_129_3" x1="120.25" y1="13" x2="120.5" y2="195" gradientUnits="userSpaceOnUse">
<stop stop-color="#EFC115"/>
<stop offset="0.212957" stop-color="#BE8310"/>
<stop offset="0.326811" stop-color="#F4EAA1"/>
<stop offset="0.520833" stop-color="white"/>
<stop offset="0.721028" stop-color="#F6EDA6"/>
<stop offset="0.837559" stop-color="#BE830F"/>
<stop offset="1" stop-color="#FBCB15"/>
</linearGradient>
</defs>
</svg>
